# xmcd
#
# Track frame offsets:
# 150
# 10095
# 21245
# 43375
# 66033
# 84425
# 103940
# 123690
# 147013
# 166350
# 189265
#
# Disc length: 2807 seconds
#
#
# Revision: 0
# Processed by: cddbd v1.5.1PL2 Copyright (c) Steve Scherf et al.
# Submitted via: CDLP Version 5
#
DISCID=920af50b
DTITLE=高橋真梨子 - ＴＨＥ　ＢＯＸ Disc 11
DYEAR=1900
DGENRE=Misc
TTITLE0=Ｏｖｅｒｔｕｒｅ（ライヴ）
TTITLE1=Ｙｏｕ’ｄ　Ｂｅ　Ｓｏ　Ｎｉｃｅ　Ｔｏ　Ｃｏｍｅ　Ｈｏｍｅ　Ｔｏ（ライヴ）
TTITLE2=ＯＬＤ　ＴＩＭＥ　ＪＡＺＺ（ライヴ）
TTITLE3=Ｓｅｎｔｉｍｅｎｔａｌ　Ｊｏｕｒｎｅｙ（ライヴ）
TTITLE4=ＵＮＦＯＲＧＥＴＴＡＢＬＥ｜Ｍｏｏｎ　Ｌｉｇｈｔ　Ｓｅｒｅｎａｄｅ（ライヴ）
TTITLE5=遥かな人へ（ライヴ）
TTITLE6=はがゆい唇（ライヴ）
TTITLE7=フレンズ（ライヴ）
TTITLE8=ごめんね…（ライヴ）
TTITLE9=グランパ（ライヴ）
TTITLE10=ｆｏｒ　ｙｏｕ…（ライヴ）
EXTD=
EXTT0=
EXTT1=
EXTT2=
EXTT3=
EXTT4=
EXTT5=
EXTT6=
EXTT7=
EXTT8=
EXTT9=
EXTT10=
PLAYORDER=
